<?xml version="1.0" encoding="UTF-8"?>
<svg id="Livello_1" xmlns="http://www.w3.org/2000/svg" version="1.1" viewBox="0 0 682 369">
  <!-- Generator: Adobe Illustrator 30.1.0, SVG Export Plug-In . SVG Version: 2.1.1 Build 136)  -->
  <defs>
    <style>
      .st0 {
        fill: #540c29;
      }

      .st1 {
        isolation: isolate;
      }
    </style>
  </defs>
  <path class="st0" d="M241.23,209.74c-3.25,0-5.64-1.3-7.15-3.25-1.52-1.95-2.38-3.9-3.03-5.63-3.47-12.78-6.72-25.77-9.75-38.77s-6.29-25.99-9.75-38.77c-2.6-9.53-5.42-19.06-8.45-28.37-3.04-9.31-6.29-18.63-9.97-27.51-3.03-7.15-6.07-10.83-9.54-10.83s-7.59,2.82-12.14,8.88c-6.94,9.1-11.92,18.84-14.96,29.46-3.03,10.61-6.29,21.23-9.54,31.62-1.08,3.68-2.6,7.58-4.34,11.91-1.95,4.33-4.33,6.71-6.94,7.58-4.77,1.52-8.89.65-11.92-3.03-3.03-3.47-5.85-7.58-8.02-11.91-4.77-10.18-9.75-20.36-14.96-30.54-5.2-10.18-10.4-20.14-16.04-30.1-1.3-2.17-2.82-4.55-4.77-7.58s-4.99-6.71-9.1-10.83c0,9.1,0,18.63.43,28.59s0,19.49-.87,28.59c-.87,12.56-2.17,24.91-3.9,37.47s-3.47,24.91-4.99,37.47c-.43,3.47-1.52,6.28-3.69,8.66-2.17,2.38-4.99,3.03-8.89,1.95-3.47-.87-5.64-2.6-6.29-5.41-.65-2.6-.65-5.85.22-9.75,9.1-38.33,13.01-77.1,11.71-116.09,0-3.25-.43-6.5-.87-9.96-.43-3.25-.43-6.5-.22-9.96,0-2.38.87-5.41,1.73-8.88.87-3.47,1.95-5.2,2.6-5.2,3.47,0,7.15.43,11.06,1.08,3.9.43,6.72,1.95,8.45,4.12,6.07,7.8,11.92,15.81,17.34,24.26,5.42,8.23,10.62,16.89,15.82,25.56,3.25,5.41,6.29,11.05,8.67,16.89,2.6,5.85,5.2,11.7,8.02,17.76l3.03-.87c1.95-5.63,3.69-11.48,5.42-17.33s3.69-11.48,5.85-16.89c2.38-5.85,5.2-11.7,8.24-17.33,3.04-5.63,6.29-11.26,9.97-16.68,5.64-8.23,12.14-12.35,19.94-12.56,7.8-.22,14.74,3.68,20.81,11.91,8.24,10.61,14.52,22.09,18.86,34.22s7.8,25.12,9.97,38.12c2.17,12.34,4.34,24.47,6.94,36.82,2.6,12.13,4.99,24.47,7.37,36.82.43,2.17.43,4.76.43,7.58s-1.08,5.2-3.04,6.93l.22-.22h.03Z"/>
  <path class="st0" d="M334.01,211.47c-6.5,0-11.92-.22-16.69-.87-4.77-.43-10.19-2.6-16.47-6.5-6.5-4.11-12.14-9.53-17.13-16.24s-8.02-13.64-9.32-21.22v-18.19c.22-4.77,1.08-8.88,2.38-12.35,1.3-3.47,3.25-7.15,5.64-10.83,6.07-10.83,13.66-19.71,22.98-26.64s19.29-10.61,29.7-10.61c3.25,0,6.07.65,8.67,2.17,7.37,1.3,12.57,4.55,15.17,10.18s2.6,11.26,0,17.33c-3.25,6.5-7.8,12.13-13.66,16.89-5.85,4.77-13.01,9.1-21.46,13.43-8.45,4.33-18.64,9.53-30.78,15.59,1.3,10.18,6.29,18.19,15.17,23.61,8.89,5.63,20.38,7.8,34.68,6.5,6.5-.43,12.14-1.3,17.34-2.6,5.2-1.3,9.32-1.52,12.57-.87,3.04.65,4.77,3.47,4.77,8.45,0,2.17-1.73,4.12-4.99,5.63-3.25,1.52-7.37,2.82-12.14,3.9-4.77,1.08-9.54,1.73-14.52,2.17s-8.89.65-11.92.65v.43h0ZM292.39,145.63c11.27-3.9,21.24-8.45,30.13-14.08,8.89-5.63,15.17-13.43,19.07-23.61-1.73,0-3.25-.22-4.77-.43h-4.34c-16.04,0-29.48,12.78-40.1,38.12h0Z"/>
  <path class="st0" d="M520.64,225.55c-2.17-.43-3.69-1.52-4.34-3.47s-1.08-3.9-1.08-6.28v-40.28c0-13.43,0-26.86.22-40.29,0-7.36-1.08-12.99-3.47-17.11-2.17-4.12-4.77-6.28-7.59-6.28-6.29-.65-12.57-1.08-18.86-1.3-6.29,0-12.57,0-18.86,1.08-7.15.87-14.09,1.73-21.03,2.38-6.94.65-13.87,1.73-21.03,3.03-2.17.43-3.9,1.3-4.77,2.17-.87.87-1.52,2.82-1.52,6.06,0,9.1.43,17.54,1.3,25.34s2.6,15.38,5.42,22.52c2.38,6.28,5.2,10.4,8.02,12.34,3.03,1.95,7.15.87,12.57-3.47,3.9-3.03,6.5-5.85,8.24-8.01,1.73-2.17,3.47-4.55,4.99-6.93,1.73-2.38,4.12-5.41,7.37-8.88,1.3-1.52,3.25-3.03,5.42-4.33s4.12-1.73,5.64-1.52c3.9.87,5.85,2.38,6.29,4.77.43,2.38-.65,5.85-2.82,10.18-2.6,4.98-6.07,9.75-10.4,14.51-4.34,4.55-10.41,9.31-17.99,14.51-8.45,5.41-15.61,6.93-21.24,4.98-5.64-2.17-11.27-6.06-16.91-11.91-3.47-3.9-5.85-8.01-7.37-12.56s-2.6-9.1-3.47-13.86c-1.08-5.41-1.73-10.4-1.73-14.73s-.43-8.45-.87-11.69c-.43-4.33-.43-7.36-.43-9.1s-.65-2.38-2.17-2.17c-1.52.22-5.2,1.3-10.62,3.03-1.3.43-2.82,0-4.55-1.52-1.73-1.52-2.82-3.03-2.82-4.76v-7.36c0-1.73,1.73-3.03,4.77-3.68,6.5-1.3,10.4-3.47,11.92-6.06,1.52-2.6,2.17-6.71,1.73-12.13-.43-7.15-.87-13.86-1.3-19.93s-.87-12.99-.87-19.93v-3.68c.43-4.12,1.3-7.36,2.82-9.75,1.52-2.38,3.47-3.47,5.64-3.25,3.47,0,6.5,1.73,9.32,4.98s4.12,6.5,3.9,9.96c0,8.01-.22,14.94-.43,20.79-.22,5.85-.22,12.78-.65,20.79,0,3.25.43,5.63,1.52,6.93,1.3,1.3,3.47,1.73,6.72,1.3,7.37-.87,14.52-1.52,21.89-2.17,7.37-.43,14.52-1.3,21.68-2.17,6.72-.87,13.44-1.3,20.16-1.52,6.72-.22,13.22,1.08,19.73,3.47,6.5,2.38,11.7,5.85,16.04,10.4,4.34,4.55,6.72,10.4,7.37,17.98,0,2.17.43,5.41.43,9.53s.22,8.45.43,13v37.04c0,6.28-.65,12.56-1.08,18.63-.43,6.28-1.08,11.48-1.73,15.59,0,1.3-1.52,2.38-3.9,3.25s-4.55,1.52-6.29,1.52h.65v.02ZM418.55,50.77c0,8.01-.22,14.94-.43,20.79-.22,5.85-.22,12.78-.65,20.79,0,3.25.43,5.63,1.52,6.93,1.3,1.3,3.47,1.73,6.72,1.3,7.37-.87,14.52-1.52,21.89-2.17,7.37-.43,14.52-1.3,21.68-2.17,6.72-.87,13.44-1.3,20.16-1.52,6.72-.22,13.22,1.08,19.73,3.47,6.5,2.38,11.71,5.85,16.04,10.4,4.34,4.55,6.72,10.4,7.37,17.98,0,2.17.43,5.41.43,9.53s.22,8.45.43,13v37.04c0,6.28-.65,12.56-1.08,18.63-.43,6.28-1.08,11.48-1.73,15.59,0,1.3-1.52,2.38-3.9,3.25s-4.55,1.52-6.29,1.52c-2.17-.43-3.68-1.52-4.33-3.47s-1.08-3.9-1.08-6.28v-40.28c0-13.43,0-26.86.22-40.28,0-7.36-1.08-13-3.47-17.11-2.17-4.12-4.77-6.28-7.59-6.28-6.29-.65-12.57-1.08-18.86-1.3-6.29,0-12.57,0-18.86,1.08-7.15.87-14.09,1.73-21.03,2.38-6.94.65-13.87,1.73-21.03,3.03-2.17.43-3.9,1.3-4.77,2.17-.87.87-1.52,2.82-1.52,6.06,0,9.1.43,17.54,1.3,25.34s2.6,15.38,5.42,22.52c2.38,6.28,5.2,10.4,8.02,12.34,3.03,1.95,7.15.87,12.57-3.47,3.9-3.03,6.5-5.85,8.24-8.01,1.73-2.17,3.47-4.55,4.99-6.93,1.73-2.38,4.12-5.41,7.37-8.88,1.3-1.52,3.25-3.03,5.42-4.33s4.12-1.73,5.64-1.52c3.9.87,5.85,2.38,6.29,4.77.43,2.38-.65,5.85-2.82,10.18-2.6,4.98-6.07,9.75-10.41,14.51-4.33,4.55-10.4,9.31-17.99,14.51-8.45,5.41-15.61,6.93-21.24,4.98-5.64-2.17-11.27-6.06-16.91-11.91-3.47-3.9-5.85-8.01-7.37-12.56s-2.6-9.1-3.47-13.86c-1.08-5.41-1.73-10.4-1.73-14.73s-.43-8.45-.87-11.7c-.43-4.33-.43-7.36-.43-9.1s-.65-2.38-2.17-2.17c-1.52.22-5.2,1.3-10.62,3.03-1.3.43-2.82,0-4.55-1.52s-2.82-3.03-2.82-4.76v-7.36c0-1.73,1.73-3.03,4.77-3.68,6.5-1.3,10.4-3.47,11.92-6.06,1.52-2.6,2.17-6.71,1.73-12.13-.43-7.15-.87-13.86-1.3-19.93s-.87-12.99-.87-19.93v-3.68c.43-4.12,1.3-7.36,2.82-9.75,1.52-2.38,3.47-3.47,5.64-3.25"/>
  <path class="st0" d="M570.93,219.7c-1.95,0-3.9.43-6.07.43s-4.12.22-6.29.22c-3.25-.43-6.29-1.52-8.89-3.47-2.6-1.95-3.47-4.12-2.82-6.71.43-1.08,1.3-2.17,3.03-3.03,1.73-1.08,3.25-1.52,4.34-1.3,6.5.65,13.22.65,19.73,0,6.5-.65,13.01-1.95,19.29-3.47,4.34-1.08,8.67-2.38,13.01-3.68,4.33-1.52,8.45-3.25,12.14-5.41,11.27-5.85,11.92-13.21,1.73-21.87-3.47-3.03-6.94-5.85-10.62-8.66-3.69-2.82-7.15-5.63-10.62-8.23-5.85-4.55-10.62-9.53-14.09-15.38-3.47-5.63-6.29-12.13-8.24-19.06-1.3-4.33-.87-8.88.87-13.64,1.73-4.76,4.55-8.45,8.24-11.26,8.67-6.71,17.77-10.18,27.31-10.4,9.54,0,18.64,3.03,27.1,9.96,2.38,1.73,4.55,3.9,6.07,6.71,1.52,2.82,3.25,5.41,4.77,8.01.87,2.17.43,4.33-1.08,6.06-1.52,1.73-3.9,1.73-6.72-.22-2.17-1.3-4.12-3.03-5.85-4.76s-3.68-3.25-5.85-4.33c-3.9-2.38-8.45-3.68-13.22-3.68s-9.1.87-13.22,2.82c-4.12,1.73-7.37,4.55-9.75,8.23-1.3,2.17-1.95,4.12-2.38,6.06-.43,1.95,0,4.11.87,6.71,3.04,6.5,5.85,11.48,8.45,14.73,2.6,3.25,5.42,5.85,8.45,7.58,3.04,1.95,6.29,4.12,9.97,6.71,3.69,2.6,7.8,6.28,12.79,11.48,3.47,3.68,5.85,7.8,7.37,12.34,1.3,4.55,1.52,9.1.43,13.65-1.08,4.55-3.9,8.23-8.45,11.48-6.94,4.76-14.31,8.23-22.11,10.18-7.8,1.95-15.82,3.68-23.84,4.98-2.38.43-4.77.87-6.94.87s-5.2,0-9.32-.22l.43-.43h-.02Z"/>
  <path class="st0" d="M522.81,69.61c-1.52,0-3.47-1.08-6.07-3.03-2.38-1.95-4.55-4.33-6.07-6.93-1.73-2.6-2.38-4.76-1.95-6.28.87-5.2,5.2-7.8,12.79-7.8,3.03,0,5.2,1.08,6.94,3.25,1.73,2.17,2.6,5.41,2.38,9.53,0,7.36-2.82,11.26-8.02,11.26h0Z"/>
  <g class="st1">
    <g class="st1">
      <path class="st0" d="M64.77,324.65l-17.88-68.38-.1-.4c0-.61.37-.91,1.11-.91h12.52c.67,0,1.11.34,1.31,1.01l9.59,41.11c.07.27.17.4.3.4s.24-.13.3-.4l9.29-41.01c.2-.74.64-1.11,1.31-1.11h12.22c.74,0,1.21.34,1.41,1.01l10.1,41.11c.07.2.17.32.3.35.13.04.24-.08.3-.35l9.29-41.01c.2-.74.64-1.11,1.31-1.11h11.92c.94,0,1.31.44,1.11,1.31l-16.56,68.38c-.2.67-.67,1.01-1.41,1.01h-12.02c-.67,0-1.11-.34-1.31-1.01l-10.3-43.73c-.07-.27-.17-.4-.3-.4s-.24.13-.3.4l-9.6,43.63c-.14.74-.57,1.11-1.31,1.11h-11.21c-.74,0-1.21-.34-1.41-1.01Z"/>
      <path class="st0" d="M187.23,266.83c-.24.24-.52.35-.86.35h-33.13c-.34,0-.51.17-.51.51v15.65c0,.34.17.5.51.5h21.71c.34,0,.62.12.86.35.24.24.35.52.35.86v9.8c0,.34-.12.62-.35.86-.24.24-.52.35-.86.35h-21.71c-.34,0-.51.17-.51.5v16.36c0,.34.17.5.51.5h33.13c.34,0,.62.12.86.35.23.24.35.52.35.86v9.8c0,.34-.12.62-.35.86-.24.24-.52.35-.86.35h-46.66c-.34,0-.62-.12-.86-.35-.24-.23-.35-.52-.35-.86v-68.28c0-.34.12-.62.35-.86.23-.24.52-.35.86-.35h46.66c.34,0,.62.12.86.35.23.24.35.52.35.86v9.8c0,.34-.12.62-.35.86Z"/>
      <path class="st0" d="M239.4,289.4c6.4,3.3,9.59,8.79,9.59,16.46,0,6.53-2.22,11.46-6.67,14.8-4.44,3.33-10.27,5-17.47,5h-26.16c-.34,0-.62-.12-.86-.35-.24-.23-.35-.52-.35-.86v-68.28c0-.34.12-.62.35-.86.23-.24.52-.35.86-.35h25.35c15.96,0,23.94,6.46,23.94,19.39,0,6.73-2.86,11.55-8.58,14.44-.4.2-.4.4,0,.61ZM211.73,267.69v15.76c0,.34.17.5.51.5h11.82c3.16,0,5.62-.74,7.37-2.22,1.75-1.48,2.63-3.5,2.63-6.06s-.88-4.7-2.63-6.21c-1.75-1.52-4.21-2.27-7.37-2.27h-11.82c-.34,0-.51.17-.51.51ZM232.13,310.96c1.75-1.58,2.63-3.75,2.63-6.51s-.88-4.93-2.63-6.52c-1.75-1.58-4.21-2.37-7.37-2.37h-12.52c-.34,0-.51.17-.51.51v16.77c0,.34.17.5.51.5h12.62c3.1,0,5.52-.79,7.27-2.37Z"/>
      <path class="st0" d="M323.94,324.65l-3.03-9.9c-.14-.27-.3-.4-.51-.4h-24.85c-.2,0-.37.13-.5.4l-2.93,9.9c-.2.67-.64,1.01-1.31,1.01h-12.83c-.4,0-.71-.12-.91-.35-.2-.23-.24-.59-.1-1.06l21.82-68.28c.2-.67.64-1.01,1.31-1.01h15.86c.67,0,1.11.34,1.31,1.01l21.82,68.28c.07.14.1.3.1.51,0,.61-.37.91-1.11.91h-12.83c-.67,0-1.11-.34-1.31-1.01ZM299.09,303.34h17.78c.4,0,.54-.2.4-.61l-9.09-30c-.07-.27-.17-.39-.3-.35-.14.04-.24.15-.3.35l-8.89,30c-.07.4.07.61.4.61Z"/>
      <path class="st0" d="M357.07,323.34c-3.97-2.09-7.05-5-9.24-8.74-2.19-3.74-3.28-8.06-3.28-12.98v-22.62c0-4.91,1.09-9.26,3.28-13.03,2.19-3.77,5.27-6.68,9.24-8.74,3.97-2.05,8.55-3.08,13.74-3.08s9.65,1.01,13.58,3.03c3.94,2.02,7,4.76,9.19,8.23,2.19,3.47,3.28,7.32,3.28,11.56v.71c0,.34-.12.62-.35.86-.24.24-.52.35-.86.35h-11.82c-.34,0-.62-.12-.86-.35-.24-.24-.35-.52-.35-.86v-.3c0-3.1-1.08-5.71-3.23-7.83-2.16-2.12-5.02-3.18-8.58-3.18s-6.55,1.13-8.74,3.38c-2.19,2.26-3.28,5.2-3.28,8.84v23.43c0,3.63,1.18,6.58,3.54,8.84,2.36,2.26,5.35,3.38,8.99,3.38s6.3-.93,8.38-2.78,3.13-4.43,3.13-7.73v-4.54c0-.34-.17-.51-.5-.51h-11.31c-.34,0-.62-.12-.86-.35-.24-.23-.35-.52-.35-.86v-9.29c0-.34.12-.62.35-.86.24-.24.52-.35.86-.35h24.64c.34,0,.62.12.86.35.23.24.35.52.35.86v13.33c0,5.12-1.08,9.56-3.23,13.33-2.16,3.77-5.2,6.65-9.14,8.63-3.94,1.99-8.5,2.98-13.69,2.98s-9.76-1.04-13.74-3.13Z"/>
      <path class="st0" d="M456.5,266.83c-.24.24-.52.35-.86.35h-33.13c-.34,0-.5.17-.5.51v15.65c0,.34.17.5.5.5h21.71c.34,0,.62.12.86.35.24.24.35.52.35.86v9.8c0,.34-.12.62-.35.86-.24.24-.52.35-.86.35h-21.71c-.34,0-.5.17-.5.5v16.36c0,.34.17.5.5.5h33.13c.34,0,.62.12.86.35.24.24.35.52.35.86v9.8c0,.34-.12.62-.35.86-.24.24-.52.35-.86.35h-46.66c-.34,0-.62-.12-.86-.35-.24-.23-.35-.52-.35-.86v-68.28c0-.34.12-.62.35-.86.24-.24.52-.35.86-.35h46.66c.34,0,.62.12.86.35.24.24.35.52.35.86v9.8c0,.34-.12.62-.35.86Z"/>
      <path class="st0" d="M507.71,255.31c.24-.24.52-.35.86-.35h11.82c.34,0,.62.12.86.35.24.24.35.52.35.86v68.28c0,.34-.12.62-.35.86-.24.24-.52.35-.86.35h-11.41c-.67,0-1.15-.27-1.41-.81l-26.16-43.23c-.14-.2-.27-.29-.4-.25-.14.03-.2.19-.2.45l.2,42.62c0,.34-.12.62-.35.86-.24.24-.52.35-.86.35h-11.82c-.34,0-.62-.12-.86-.35-.24-.23-.35-.52-.35-.86v-68.28c0-.34.12-.62.35-.86.24-.24.52-.35.86-.35h11.41c.67,0,1.14.27,1.41.81l26.06,43.03c.13.2.27.29.4.25.13-.03.2-.18.2-.46l-.1-42.42c0-.34.12-.62.35-.86Z"/>
      <path class="st0" d="M544.92,323.39c-3.97-2.05-7.04-4.93-9.19-8.64-2.16-3.7-3.23-7.98-3.23-12.83v-23.33c0-4.85,1.08-9.12,3.23-12.83,2.15-3.7,5.22-6.56,9.19-8.58,3.97-2.02,8.58-3.03,13.84-3.03s9.75.96,13.69,2.88c3.94,1.92,7,4.65,9.19,8.18,2.19,3.54,3.28,7.62,3.28,12.27,0,.61-.4.98-1.21,1.11l-11.82.71h-.2c-.67,0-1.01-.37-1.01-1.11,0-3.57-1.09-6.43-3.28-8.59-2.19-2.15-5.07-3.23-8.64-3.23s-6.55,1.08-8.74,3.23c-2.19,2.16-3.28,5.02-3.28,8.59v24.34c0,3.5,1.09,6.33,3.28,8.48,2.19,2.16,5.1,3.23,8.74,3.23s6.45-1.08,8.64-3.23c2.19-2.15,3.28-4.98,3.28-8.48,0-.74.4-1.11,1.21-1.11l11.82.51c.34,0,.62.1.86.3.24.2.35.44.35.71,0,4.65-1.1,8.75-3.28,12.32-2.19,3.57-5.25,6.33-9.19,8.28-3.94,1.96-8.5,2.93-13.69,2.93s-9.86-1.03-13.84-3.08Z"/>
      <path class="st0" d="M610.83,325.21c-.24-.24-.35-.52-.35-.86v-25.55c0-.27-.04-.47-.1-.61l-20.81-41.81c-.14-.27-.2-.47-.2-.61,0-.54.37-.81,1.11-.81h12.73c.67,0,1.14.3,1.41.91l12.62,26.87c.2.4.4.4.61,0l12.62-26.87c.27-.61.74-.91,1.41-.91h12.93c.47,0,.79.12.96.35.17.24.15.59-.05,1.06l-21.01,41.81c-.07.13-.1.34-.1.61v25.55c0,.34-.12.62-.35.86-.24.24-.52.35-.86.35h-11.72c-.34,0-.62-.12-.86-.35Z"/>
    </g>
  </g>
</svg>